<svg width="700" height="700" viewBox="0 0 700 700" fill="none" xmlns="http://www.w3.org/2000/svg">
<path d="M410.254 491.632C426.082 497.343 443.16 500.444 461 500.444C544.108 500.444 611.498 433.108 611.498 350C611.498 266.892 544.108 199.503 461 199.503C443.16 199.503 426.082 202.604 410.2 208.314C393.23 187.701 372.67 170.24 349.5 156.806C382.297 137.824 420.37 127 461 127C584.139 127 684 226.806 684 350C684 473.194 584.139 573 461 573C420.37 573 382.297 562.122 349.5 543.14H349.445C326.275 529.705 305.716 512.246 288.8 491.687C278.629 479.34 269.764 465.852 262.421 451.493H262.639C259.539 438.82 242.242 363.706 288.746 299.689C308.707 272.331 333.074 256.884 349.228 248.617C349.282 248.726 349.391 248.781 349.5 248.889C325.296 275.649 310.502 311.057 310.502 350C310.502 388.943 325.296 424.352 349.5 451.058C365.926 469.169 386.757 483.256 410.254 491.632Z" fill="#FFC107"/>
<path d="M461 350C461 403.738 441.964 453.124 410.254 491.632C386.758 483.256 365.926 469.169 349.5 451.058C365.654 442.845 390.184 427.398 410.254 399.822C456.758 335.805 439.461 260.691 436.361 248.073C452.134 278.64 461 313.232 461 350Z" fill="#F7931E"/>
<path d="M349.228 248.617C332.856 230.668 312.188 216.691 288.8 208.314C272.973 202.604 255.84 199.503 238 199.503C154.892 199.503 87.502 266.892 87.502 350C87.502 433.108 154.892 500.444 238 500.444C255.84 500.444 272.918 497.343 288.8 491.687C305.716 512.246 326.275 529.705 349.446 543.14C316.648 562.122 278.63 573 238 573C114.861 573 15 473.14 15 350C15 226.86 114.861 127 238 127C278.63 127 316.703 137.878 349.5 156.806C372.67 170.24 393.23 187.701 410.2 208.314C420.262 220.552 429.073 233.877 436.361 248.073C439.461 260.691 456.758 335.805 410.254 399.822C390.184 427.398 365.654 442.845 349.5 451.058C373.704 424.352 388.498 388.889 388.498 350C388.498 311.111 373.704 275.649 349.5 248.889C349.391 248.781 349.282 248.726 349.228 248.617Z" fill="#FFC107"/>
<path d="M288.8 208.314C312.188 216.691 332.856 230.668 349.228 248.617C333.074 256.884 308.707 272.331 288.746 299.689C242.242 363.706 259.539 438.82 262.639 451.439H262.421C246.811 421.089 238 386.55 238 350C238 296.154 257.037 246.823 288.8 208.314Z" fill="#F7931E"/>
</svg>
